<svg width="206" height="17" viewBox="0 0 206 17" fill="none" xmlns="http://www.w3.org/2000/svg">
<path d="M10.6229 12.634H3.60295L2.09095 16H0.704945L6.46495 3.4H7.77895L13.5389 16H12.1349L10.6229 12.634ZM10.1369 11.554L7.11295 4.786L4.08895 11.554H10.1369ZM15.6233 3.4H20.7533C22.0853 3.4 23.2613 3.67 24.2813 4.21C25.3013 4.738 26.0933 5.482 26.6573 6.442C27.2213 7.39 27.5033 8.476 27.5033 9.7C27.5033 10.924 27.2213 12.016 26.6573 12.976C26.0933 13.924 25.3013 14.668 24.2813 15.208C23.2613 15.736 22.0853 16 20.7533 16H15.6233V3.4ZM20.6813 14.848C21.7853 14.848 22.7513 14.632 23.5793 14.2C24.4073 13.756 25.0493 13.15 25.5053 12.382C25.9613 11.602 26.1893 10.708 26.1893 9.7C26.1893 8.692 25.9613 7.804 25.5053 7.036C25.0493 6.256 24.4073 5.65 23.5793 5.218C22.7513 4.774 21.7853 4.552 20.6813 4.552H16.9553V14.848H20.6813ZM30.4944 3.4H31.8264V16H30.4944V3.4ZM41.398 16.108C40.15 16.108 39.022 15.832 38.014 15.28C37.018 14.728 36.232 13.966 35.656 12.994C35.092 12.01 34.81 10.912 34.81 9.7C34.81 8.488 35.092 7.396 35.656 6.424C36.232 5.44 37.024 4.672 38.032 4.12C39.04 3.568 40.168 3.292 41.416 3.292C42.352 3.292 43.216 3.448 44.008 3.76C44.8 4.072 45.472 4.528 46.024 5.128L45.178 5.974C44.194 4.978 42.952 4.48 41.452 4.48C40.456 4.48 39.55 4.708 38.734 5.164C37.918 5.62 37.276 6.244 36.808 7.036C36.352 7.828 36.124 8.716 36.124 9.7C36.124 10.684 36.352 11.572 36.808 12.364C37.276 13.156 37.918 13.78 38.734 14.236C39.55 14.692 40.456 14.92 41.452 14.92C42.964 14.92 44.206 14.416 45.178 13.408L46.024 14.254C45.472 14.854 44.794 15.316 43.99 15.64C43.198 15.952 42.334 16.108 41.398 16.108ZM48.8635 3.4H50.1955V16H48.8635V3.4ZM59.8032 16.108C58.5552 16.108 57.4212 15.832 56.4012 15.28C55.3932 14.716 54.6012 13.948 54.0252 12.976C53.4612 12.004 53.1792 10.912 53.1792 9.7C53.1792 8.488 53.4612 7.396 54.0252 6.424C54.6012 5.452 55.3932 4.69 56.4012 4.138C57.4212 3.574 58.5552 3.292 59.8032 3.292C61.0512 3.292 62.1732 3.568 63.1692 4.12C64.1772 4.672 64.9692 5.44 65.5452 6.424C66.1212 7.396 66.4092 8.488 66.4092 9.7C66.4092 10.912 66.1212 12.01 65.5452 12.994C64.9692 13.966 64.1772 14.728 63.1692 15.28C62.1732 15.832 61.0512 16.108 59.8032 16.108ZM59.8032 14.92C60.7992 14.92 61.6992 14.698 62.5032 14.254C63.3072 13.798 63.9372 13.174 64.3932 12.382C64.8492 11.578 65.0772 10.684 65.0772 9.7C65.0772 8.716 64.8492 7.828 64.3932 7.036C63.9372 6.232 63.3072 5.608 62.5032 5.164C61.6992 4.708 60.7992 4.48 59.8032 4.48C58.8072 4.48 57.9012 4.708 57.0852 5.164C56.2812 5.608 55.6452 6.232 55.1772 7.036C54.7212 7.828 54.4932 8.716 54.4932 9.7C54.4932 10.684 54.7212 11.578 55.1772 12.382C55.6452 13.174 56.2812 13.798 57.0852 14.254C57.9012 14.698 58.8072 14.92 59.8032 14.92ZM79.9248 3.4V16H78.8268L70.7268 5.776V16H69.3948V3.4H70.4928L78.6108 13.624V3.4H79.9248ZM91.9394 12.634H84.9194L83.4074 16H82.0214L87.7814 3.4H89.0954L94.8554 16H93.4514L91.9394 12.634ZM91.4534 11.554L88.4294 4.786L85.4054 11.554H91.4534ZM105.544 16L102.664 11.95C102.34 11.986 102.004 12.004 101.656 12.004H98.2717V16H96.9397V3.4H101.656C103.264 3.4 104.524 3.784 105.436 4.552C106.348 5.32 106.804 6.376 106.804 7.72C106.804 8.704 106.552 9.538 106.048 10.222C105.556 10.894 104.848 11.38 103.924 11.68L107.002 16H105.544ZM101.62 10.87C102.868 10.87 103.822 10.594 104.482 10.042C105.142 9.49 105.472 8.716 105.472 7.72C105.472 6.7 105.142 5.92 104.482 5.38C103.822 4.828 102.868 4.552 101.62 4.552H98.2717V10.87H101.62ZM122.56 12.634H115.54L114.028 16H112.642L118.402 3.4H119.716L125.476 16H124.072L122.56 12.634ZM122.074 11.554L119.05 4.786L116.026 11.554H122.074ZM116.062 0.141999H117.772L120.238 2.374H118.978L116.062 0.141999ZM135.746 16.108C134.81 16.108 133.91 15.958 133.046 15.658C132.194 15.358 131.534 14.962 131.066 14.47L131.588 13.444C132.044 13.9 132.65 14.272 133.406 14.56C134.162 14.836 134.942 14.974 135.746 14.974C136.874 14.974 137.72 14.77 138.284 14.362C138.848 13.942 139.13 13.402 139.13 12.742C139.13 12.238 138.974 11.836 138.662 11.536C138.362 11.236 137.99 11.008 137.546 10.852C137.102 10.684 136.484 10.504 135.692 10.312C134.744 10.072 133.988 9.844 133.424 9.628C132.86 9.4 132.374 9.058 131.966 8.602C131.57 8.146 131.372 7.528 131.372 6.748C131.372 6.112 131.54 5.536 131.876 5.02C132.212 4.492 132.728 4.072 133.424 3.76C134.12 3.448 134.984 3.292 136.016 3.292C136.736 3.292 137.438 3.394 138.122 3.598C138.818 3.79 139.418 4.06 139.922 4.408L139.472 5.47C138.944 5.122 138.38 4.864 137.78 4.696C137.18 4.516 136.592 4.426 136.016 4.426C134.912 4.426 134.078 4.642 133.514 5.074C132.962 5.494 132.686 6.04 132.686 6.712C132.686 7.216 132.836 7.624 133.136 7.936C133.448 8.236 133.832 8.47 134.288 8.638C134.756 8.794 135.38 8.968 136.16 9.16C137.084 9.388 137.828 9.616 138.392 9.844C138.968 10.06 139.454 10.396 139.85 10.852C140.246 11.296 140.444 11.902 140.444 12.67C140.444 13.306 140.27 13.888 139.922 14.416C139.586 14.932 139.064 15.346 138.356 15.658C137.648 15.958 136.778 16.108 135.746 16.108ZM151.248 12.634H144.228L142.716 16H141.33L147.09 3.4H148.404L154.164 16H152.76L151.248 12.634ZM150.762 11.554L147.738 4.786L144.714 11.554H150.762ZM161.545 16.108C160.297 16.108 159.169 15.832 158.161 15.28C157.165 14.728 156.379 13.966 155.803 12.994C155.239 12.01 154.957 10.912 154.957 9.7C154.957 8.488 155.239 7.396 155.803 6.424C156.379 5.44 157.171 4.672 158.179 4.12C159.187 3.568 160.315 3.292 161.563 3.292C162.499 3.292 163.363 3.448 164.155 3.76C164.947 4.072 165.619 4.528 166.171 5.128L165.325 5.974C164.341 4.978 163.099 4.48 161.599 4.48C160.603 4.48 159.697 4.708 158.881 5.164C158.065 5.62 157.423 6.244 156.955 7.036C156.499 7.828 156.271 8.716 156.271 9.7C156.271 10.684 156.499 11.572 156.955 12.364C157.423 13.156 158.065 13.78 158.881 14.236C159.697 14.692 160.603 14.92 161.599 14.92C163.111 14.92 164.353 14.416 165.325 13.408L166.171 14.254C165.619 14.854 164.941 15.316 164.137 15.64C163.345 15.952 162.481 16.108 161.545 16.108ZM174.254 16.108C173.006 16.108 171.872 15.832 170.852 15.28C169.844 14.716 169.052 13.948 168.476 12.976C167.912 12.004 167.63 10.912 167.63 9.7C167.63 8.488 167.912 7.396 168.476 6.424C169.052 5.452 169.844 4.69 170.852 4.138C171.872 3.574 173.006 3.292 174.254 3.292C175.502 3.292 176.624 3.568 177.62 4.12C178.628 4.672 179.42 5.44 179.996 6.424C180.572 7.396 180.86 8.488 180.86 9.7C180.86 10.912 180.572 12.01 179.996 12.994C179.42 13.966 178.628 14.728 177.62 15.28C176.624 15.832 175.502 16.108 174.254 16.108ZM174.254 14.92C175.25 14.92 176.15 14.698 176.954 14.254C177.758 13.798 178.388 13.174 178.844 12.382C179.3 11.578 179.528 10.684 179.528 9.7C179.528 8.716 179.3 7.828 178.844 7.036C178.388 6.232 177.758 5.608 176.954 5.164C176.15 4.708 175.25 4.48 174.254 4.48C173.258 4.48 172.352 4.708 171.536 5.164C170.732 5.608 170.096 6.232 169.628 7.036C169.172 7.828 168.944 8.716 168.944 9.7C168.944 10.684 169.172 11.578 169.628 12.382C170.096 13.174 170.732 13.798 171.536 14.254C172.352 14.698 173.258 14.92 174.254 14.92ZM183.846 3.4H185.178V14.848H192.234V16H183.846V3.4ZM202.383 12.634H195.363L193.851 16H192.465L198.225 3.4H199.539L205.299 16H203.895L202.383 12.634ZM201.897 11.554L198.873 4.786L195.849 11.554H201.897Z" fill="white"/>
</svg>
